<svg xmlns="http://www.w3.org/2000/svg" viewBox="0 0 120.3 75" role="img" aria-label="Alibaba Cloud">
  <rect x="40.1" y="32.8" fill="#ed6b1e" width="40.1" height="9"/>
  <path fill="#ed6b1e" d="M100.2,0H73.7l6.4,9.1L99.5,15c3.6,1.1,5.9,4.5,5.8,8V52c0,3.6-2.3,6.9-5.8,8l-19.3,5.9L73.7,75h26.5
    c11.1,0,20-9,20-20V20C120.3,9,111.3,0,100.2,0"/>
  <path fill="#ed6b1e" d="M20,0h26.5l-6.4,9.1L20.8,15c-3.6,1.1-5.9,4.5-5.8,8V52c0,3.6,2.3,6.9,5.8,8l19.3,5.9l6.4,9.1H20
    C9,75,0,66,0,55V20C0,9,9,0,20,0"/>
</svg>
