<svg xmlns="http://www.w3.org/2000/svg" viewBox="0 0 323.6 320" role="img" aria-label="OpenAI">
  <path fill="#f7f7f7" d="M123.2,118.3V85c0-2.2,0.6-3.8,2.9-5.1L187.9,44c8.3-4.8,18.9-7,29.2-7c39.1,0,63.8,30.1,63.8,62.5
	c0,2.6,0,6.1-0.6,9l-64.7-37.8c-3.2-1.9-6.7-2.2-10.6,0L123.2,118.3z M266.1,236.6v-74c0-4.2-1.6-7-5.4-9.3l-82-47.7l28.8-16.7
	c1.6-1,4.2-1,5.8,0l62.2,35.9c17.6,10.3,29.8,32.7,29.8,54.1C305.2,204.2,289.8,227.6,266.1,236.6z M106.2,172.8l-28.5-17
	c-2.2-1.3-2.9-2.9-2.9-5.1V79.3c0-34.9,26.6-61.2,62.8-61.2c14.1,0,27.6,4.8,38.4,13.5L111.7,69c-3.8,2.2-5.4,5.1-5.4,9.3V172.8z
	 M162,204.9l-38.8-21.8v-46.1l38.8-21.8l38.4,21.8v46.1L162,204.9z M186,301.9c-14.1,0-27.6-4.8-38.4-13.5L212,251
	c3.8-2.2,5.4-5.1,5.4-9.3v-94.5l28.8,17c2.2,1.3,2.9,2.9,2.9,5.1v71.5C249.1,275.7,222.2,301.9,186,301.9z M110.4,231.1l-62.2-35.9
	c-17.6-10.3-29.8-32.7-29.8-54.1c0-25.6,15.7-48.7,39.4-57.7v74.3c0,4.2,1.6,7,5.4,9.3l81.7,47.4l-28.8,16.7
	C114.6,232.1,112,232.1,110.4,231.1z M106.5,283c-36.8,0-63.8-27.6-63.8-61.8c0-3.2,0.3-6.4,0.6-9.3l64.4,37.2c3.8,2.2,7,2.2,10.9,0
	l81.7-47.4V235c0,2.2-0.6,3.8-2.9,5.1L135.7,276C127.4,280.8,116.8,283,106.5,283z M186,319.2c38.4,0,70.5-27.6,77.5-64.1
	c35.9-9,59-42.3,59-76.3c0-22.4-9.6-43.9-27.2-59.6c1.6-6.7,2.9-13.8,2.9-20.5c0-45.2-36.8-79.1-79.1-79.1c-8.7,0-17.3,1.6-25.6,4.5
	C179,9.7,159.4,0.8,137.6,0.8c-38.4,0-70.5,27.6-77.5,64.1c-35.9,9-59,42.3-59,76.3c0,22.4,9.6,43.9,27.2,59.6
	c-1.6,6.7-2.9,13.8-2.9,20.5c0,45.2,36.8,79.1,79.1,79.1c8.7,0,17.3-1.6,25.6-4.5C144.7,310.3,164.2,319.2,186,319.2z"/>
</svg>
